# xmcd CD database file
#
# Track frame offsets:
#	150
#	13417
#	26675
#	40262
#	53820
#	67512
#	81592
#	93980
#	105729
#	117504
#	131487
#	145272
#	159747
#	172950
#	185809
#	198934
#	213097
#	225422
#	238320
#	248752
#
# Disc length: 3493 seconds
#
# Revision: 1
# Processed by: cddbd v1.5.2PL0 Copyright (c) Steve Scherf et al.
# Submitted via: CDex 1.51
#
DISCID=160da314
DTITLE=Erroll Garner - No Ballad  {1945-1949}
DYEAR=2000
DGENRE=Jazz
TTITLE0=Jumpin' At The Deuces   [Slam Stewart Quartet, 1945]
TTITLE1=Play Fiddle Play   [1945]
TTITLE2=Dark Eyes   [1945]
TTITLE3=Laff Slam Laff   [1945]
TTITLE4=Yesterdays   [1945]
TTITLE5=Loot To Boot   [1945]
TTITLE6=Somedy Loves Me   [1945]
TTITLE7=Back Home Again In Indiana   [1945]
TTITLE8=Bouncing With Me   [1945]
TTITLE9=Trio   [1947]
TTITLE10=Cool Blues   [Charlie Parker, 1947]
TTITLE11=Play, Piano Play   [1947]
TTITLE12=Loose Nuts   [1947]
TTITLE13=Love For Sale   [1947]
TTITLE14=Frankie And Johnny Fantasy   [1947]
TTITLE15=Stompin' At The Savoy   [1949]
TTITLE16=Undecided   [1949]
TTITLE17=All Of Me   [1949]
TTITLE18=This Can't Be Love   [1949]
TTITLE19=I'm Confessin'   [1949]
EXTD=YEAR: 2000
EXTT0=
EXTT1=
EXTT2=
EXTT3=
EXTT4=
EXTT5=
EXTT6=
EXTT7=
EXTT8=
EXTT9=
EXTT10=
EXTT11=
EXTT12=
EXTT13=
EXTT14=
EXTT15=
EXTT16=
EXTT17=
EXTT18=
EXTT19=
PLAYORDER=
